<svg width="148" height="148" viewBox="0 0 148 148" fill="none" xmlns="http://www.w3.org/2000/svg">
<path d="M36.3066 51.8574C36.3645 51.0481 36.5082 49.9203 36.8262 49.5156C37.231 48.9661 39.2261 45.7587 40.8447 47.5508C41.5385 47.0594 42.8389 46.0469 42.8389 46.0469C42.8389 46.0469 42.8685 46.1626 42.9551 46.3359C42.9262 44.9199 42.9254 43.9663 42.8965 43.7061C42.723 41.9428 40.8152 18.9617 44.4863 15.1172C44.5034 15.0855 46.5851 11.2305 50.7305 7.91992C48.7359 13.0941 44.8338 26.5356 45.3252 45.9316C45.3252 46.0762 45.4697 46.192 45.6143 46.1631C45.7298 46.1341 45.8164 46.0179 45.8164 45.9023C45.4985 33.0972 47.1172 23.1247 48.5625 16.9678C49.632 12.3718 50.7598 9.1055 51.4824 7.37109C54.1418 5.4055 57.5815 3.72851 61.8018 3.29492C59.0846 6.59015 56.8301 10.7238 55.0957 15.6377C53.5926 19.858 52.4936 24.6859 51.7998 29.918C50.9616 36.2483 50.9617 42.9258 51.0195 46.25C49.6612 47.146 49.0253 48.7932 49.4297 50.3828C50.7016 55.268 51.6557 60.4717 52.4072 65.8193C54.4595 65.01 56.6567 63.8824 61.8887 62.9863C65.9361 62.2926 82.0938 62.2926 86.1406 62.9863C91.3438 63.8535 93.5408 64.9811 95.6221 65.8193C96.3736 60.4717 97.3277 55.2391 98.5996 50.3828C99.004 48.7933 98.3679 47.1461 97.0098 46.25C97.0676 42.9258 97.0668 36.2773 96.2285 29.918C95.5637 24.6859 94.4367 19.8869 92.9336 15.6377C91.2281 10.7527 88.9447 6.59017 86.2275 3.29492C90.4478 3.72854 93.8875 5.40549 96.5469 7.37109C97.2695 9.13443 98.3973 12.3719 99.4668 16.9678C100.912 23.1247 102.531 33.0972 102.213 45.9023C102.213 46.018 102.299 46.1342 102.415 46.1631C102.56 46.1919 102.704 46.0761 102.704 45.9316C103.224 26.5067 99.2934 13.0942 97.2988 7.91992C101.464 11.2231 103.516 15.0687 103.542 15.1172C107.213 18.9906 105.305 41.9428 105.132 43.7061C105.103 43.9952 105.074 44.92 105.074 46.3359C105.132 46.1627 105.189 46.0469 105.189 46.0469C105.189 46.0469 106.52 47.0594 107.185 47.5508C108.803 45.759 110.797 48.9652 111.202 49.5156C111.491 49.9203 111.665 51.0481 111.723 51.8574C111.723 52.002 111.665 52.1467 111.578 52.2334C110.74 51.6842 107.676 49.7473 106.433 49.4004C106.375 49.1981 106.375 48.9382 106.462 48.707C106.462 48.6782 106.491 48.6202 106.52 48.5625C106.52 48.5625 105.71 48.3024 105.017 48.418C104.988 55.7024 104.987 69.4329 105.045 76.168C105.075 76.2268 106.028 77.5266 106.086 78.7979C106.144 80.0697 106.144 80.0703 106.144 80.0703C106.147 80.0968 106.423 82.1046 105.045 83.7988C104.9 90.3027 104.554 103.686 104.236 113.919C104.236 114.006 104.236 114.093 104.265 114.18C104.38 114.613 104.612 115.971 104.728 116.376C105.392 118.573 104.843 124.239 104.785 124.586C104.698 125.309 104.12 126.581 103.86 127.187C103.774 127.361 103.715 127.592 103.744 127.794C103.946 130.627 98.802 139.645 95.4199 141.756C95.5066 141.525 95.5926 141.322 95.6504 141.091C96.3152 138.923 96.4598 136.437 96.084 133.749C95.766 131.61 95.1302 129.298 94.1475 126.898C94.1764 126.638 94.2056 126.378 94.1768 126.089C94.0033 123.487 93.7428 118.833 93.5693 112.879C91.5172 113.717 89.8694 115.133 85.5049 115.942C81.6893 116.636 66.3691 116.636 62.5244 115.942C58.1307 115.133 56.4824 113.717 54.459 112.879C54.2856 118.805 54.026 123.458 53.8525 126.089C53.8237 126.349 53.852 126.638 53.8809 126.898C52.8981 129.326 52.2623 131.61 51.9443 133.749C51.5686 136.437 51.7132 138.923 52.3779 141.091C52.4646 141.322 52.5227 141.554 52.6094 141.756C49.2273 139.646 44.0818 130.627 44.2842 127.794C44.2842 127.592 44.2555 127.39 44.169 127.188C43.9088 126.581 43.3599 125.28 43.2441 124.586C43.1863 124.239 42.6369 118.544 43.3018 116.376C43.4463 115.971 43.6769 114.614 43.7637 114.18C43.7926 114.093 43.793 114.006 43.793 113.919C43.475 103.686 43.099 90.3027 42.9834 83.7988C41.5779 82.1351 41.8801 80.1012 41.8848 80.0703C41.8848 80.0703 41.8856 80.0697 41.9434 78.7979C42.0012 77.5284 42.9512 76.2302 42.9834 76.168C43.0412 69.4329 43.0416 55.7024 43.0127 48.418C42.29 48.3313 41.5098 48.5336 41.5098 48.5625C41.51 48.5915 41.5386 48.6494 41.5674 48.707C41.6829 48.9382 41.6824 49.1692 41.5957 49.4004C40.3526 49.7475 37.2897 51.684 36.4512 52.2334C36.3645 52.1467 36.3066 52.002 36.3066 51.8574ZM106.462 49.6318C107.474 49.9499 109.786 51.3372 111.491 52.4355C111.347 52.5511 111.144 52.5804 110.971 52.4648L106.838 50.0654C106.665 49.9498 106.549 49.8052 106.462 49.6318ZM105.045 78.0752C105.045 79.0288 105.074 79.6937 105.074 79.9541C105.103 80.1853 105.103 80.8793 105.074 81.9199C105.334 81.2553 105.393 80.9084 105.393 80.5039C105.393 80.2499 105.365 80.0783 105.363 80.0703L105.363 80.041L105.306 78.7402C105.306 78.3934 105.189 78.3931 105.045 78.0752ZM94.5527 91.4883C94.3793 99.9 93.4249 114.122 100.218 126.378C100.622 127.072 101.692 126.956 101.895 126.176L101.895 126.146C102.116 125.259 102.126 125.223 102.126 125.222C102.126 125.222 105.594 57.8986 102.732 48.0127C102.559 47.3192 101.692 46.9147 101.229 47.4639C100.507 48.2445 99.264 50.3834 98.2813 53.9385C96.6914 59.7486 95.015 78.9715 94.6104 88.8574L94.6104 89.1465C94.5814 90.0137 94.5527 90.7945 94.5527 91.4883ZM94.9863 88.8281C95.391 79.0866 97.0381 59.8929 98.6279 53.9961C99.8131 49.8049 101.085 48.0996 101.548 47.666C101.577 47.637 101.663 47.5213 101.895 47.5791C102.126 47.6369 102.357 47.8687 102.443 48.1289C103.224 50.8753 103.397 58.6509 103.397 70.791C103.397 75.734 103.311 81.1108 103.195 86.4873C102.732 86.6899 97.7901 88.6545 94.9863 88.8281ZM94.7832 98.4258C94.7832 96.5758 94.8412 94.8119 94.8701 93.251C94.8701 92.6151 94.8994 92.037 94.8994 91.459C94.9283 90.852 94.9281 90.1583 94.957 89.3779C97.7896 89.2334 102.356 87.4119 103.166 87.0937C102.761 105.767 101.837 124.21 101.808 125.135L101.576 126.06C101.518 126.291 101.345 126.436 101.114 126.465C100.912 126.494 100.681 126.436 100.536 126.176C98.1947 121.984 96.7488 117.301 95.7949 111.896C95.1012 107.907 94.7832 103.629 94.7832 98.4258ZM95.5059 86.7764C97.2981 86.6896 102.56 83.6543 102.56 83.6543C102.791 64.4318 102.126 51.7419 101.952 48.8223C101.952 48.5332 101.577 48.4178 101.403 48.6201C97.6456 53.621 96.0262 72.1788 95.5059 86.7764ZM95.3906 91.5459C95.275 97.0091 95.333 101.461 95.4775 103.831C95.9401 111.144 99.1487 121.175 100.392 124.846C100.478 125.164 100.941 125.077 100.97 124.759C101.779 111.144 102.241 99.3792 102.443 89.4355C101.316 90.8518 95.9398 91.4881 95.3906 91.5459ZM51.5107 45.9316C51.424 44.0237 51.2506 37.4329 52.2334 29.9463C53.274 22.0838 55.8183 11.2444 62.0908 3.61328C62.2931 3.38207 62.5821 3.17968 62.8711 3.03516C63.7672 2.65938 65.8195 1.7922 67.0625 1.73438L80.9951 1.73437C82.2092 1.79219 84.2621 2.63047 85.1582 3.03516C85.476 3.15081 85.7362 3.35324 85.9385 3.61328C92.2109 11.2444 94.7543 22.055 95.7949 29.9463C96.7777 37.4329 96.6043 44.0237 96.5176 45.9316C92.7867 43.9373 55.2395 43.9372 51.5107 45.9316ZM52.9277 140.918C52.1184 138.259 51.8002 134.009 54.1416 127.881C54.4596 128.69 55.095 129.355 55.9043 129.789C60.7606 132.304 87.2395 132.304 92.0957 129.789C92.905 129.384 93.5115 128.69 93.8584 127.881C96.1998 134.009 95.9109 138.258 95.1016 140.889C94.957 141.409 94.7545 141.843 94.5811 142.276C91.8638 143.895 86.8918 146.554 74 146.236C61.1078 146.554 56.1356 143.923 53.4473 142.305C53.2451 141.871 53.0722 141.409 52.9277 140.918ZM52.5225 66.9463C54.6326 82.8158 54.777 99.7264 54.459 111.78C56.4246 112.59 58.1883 114.092 62.7266 114.931C65.1836 115.364 82.8164 115.364 85.2734 114.931C89.8117 114.092 91.5754 112.59 93.541 111.78C93.2231 99.7264 93.3674 82.8447 95.4775 66.9463C93.5409 66.1658 91.2283 64.9518 85.8809 64.0557C83.1059 63.5932 64.8941 63.5932 62.1191 64.0557C56.7428 64.9518 54.4591 66.1658 52.5225 66.9463ZM54.2285 67.9004C55.9628 67.1778 58.1594 66.2812 62.4082 65.5586C65.0098 65.125 83.0479 65.125 85.6494 65.5586C89.8986 66.2523 92.0957 67.1488 93.8301 67.9004C92.5293 78.0175 91.8926 89.5798 91.8926 102.27C91.8926 105.073 91.9217 107.964 91.9795 110.826C91.7194 110.942 91.488 111.086 91.2568 111.23C89.8115 112.011 88.1349 112.908 85.042 113.457C82.7862 113.862 65.3013 113.862 63.0449 113.457C59.981 112.879 58.3043 112.011 56.8301 111.23C56.5699 111.086 56.3383 110.942 56.0781 110.826C56.1359 107.964 56.165 105.073 56.165 102.27C56.165 89.5799 55.5004 78.0175 54.2285 67.9004ZM45.2383 47.9844C42.38 57.8889 45.8378 125.039 45.8457 125.192C45.8457 125.192 45.8451 125.193 46.0762 126.117L46.0762 126.146C46.2785 126.956 47.3482 127.071 47.7529 126.349C54.5458 114.092 53.5924 99.8703 53.4189 91.4297C53.4189 90.7361 53.3902 89.9558 53.3613 89.0889L53.3613 88.7998C52.9277 78.9428 51.2504 59.691 49.6895 53.8809C48.6778 50.3256 47.4639 48.1867 46.7412 47.4063C46.2787 46.8859 45.4406 47.3195 45.2383 47.9844ZM44.834 87.123C45.6444 87.4414 50.2395 89.2617 53.043 89.4063C53.0719 90.1578 53.1006 90.852 53.1006 91.459C53.1006 92.037 53.1299 92.644 53.1299 93.251C53.1588 94.8119 53.2168 96.5752 53.2168 98.4541C53.2168 103.657 52.8988 107.936 52.2051 111.925C51.2512 117.33 49.7763 122.013 47.4639 126.204C47.3193 126.464 47.0592 126.522 46.8857 126.493C46.6547 126.464 46.4817 126.32 46.4238 126.089L46.1924 125.163C46.1632 124.204 45.2386 105.765 44.834 87.123ZM44.6602 70.791C44.6602 58.651 44.805 50.8753 45.6143 48.1289C45.6721 47.8688 45.903 47.637 46.1631 47.5791C46.3651 47.5214 46.4806 47.6369 46.5098 47.666C46.9144 48.0996 48.2158 49.8049 49.3721 53.9961C50.9619 59.8929 52.6098 79.0866 53.0723 88.8281C50.2395 88.6547 45.3248 86.6607 44.8623 86.4873C44.7467 81.1397 44.6602 75.7629 44.6602 70.791ZM45.585 89.4355C45.7873 99.3793 46.2502 111.144 47.0596 124.759C47.0596 125.106 47.522 125.164 47.6377 124.846C48.8807 121.146 52.0892 111.144 52.5518 103.831C52.6963 101.461 52.7543 96.9801 52.6387 91.5459C52.0895 91.517 46.7123 90.852 45.585 89.4355ZM46.0479 48.8223C45.8744 51.713 45.2092 64.4029 45.4404 83.6543C45.4404 83.6543 50.6731 86.6891 52.4941 86.8047C51.9738 72.2071 50.3545 53.6492 46.5967 48.6484C46.4232 48.4176 46.0767 48.5333 46.0479 48.8223ZM42.6074 80.5039C42.6075 80.9373 42.6657 81.2553 42.9258 81.9199L42.9258 79.9541C42.9258 79.7226 42.9551 79.0576 42.9551 78.0752C42.8106 78.3931 42.7233 78.3645 42.6943 78.7402L42.6367 80.041L42.6367 80.0703C42.6354 80.0784 42.6074 80.25 42.6074 80.5039ZM36.5088 52.4648C38.2142 51.3664 40.5263 49.9782 41.5381 49.6602C41.4514 49.8047 41.3355 49.9787 41.1621 50.0654L37.0293 52.4932C36.856 52.5798 36.6533 52.5514 36.5088 52.4648Z" fill="black"/>
</svg>
