<svg viewBox="0 0 31 62" fill="none" xmlns="http://www.w3.org/2000/svg">
<g filter="url(#filter0_f_4911_13833)">
<ellipse cx="15.5" cy="31" rx="10.5" ry="26" fill="#D9D9D9"/>
</g>
<g clip-path="url(#clip0_4911_13833)">
<path d="M21.0869 32.0783V31.9141C22.5743 30.6861 23.5867 29.1452 24.2825 27.276C24.3057 27.1303 24.3244 26.8971 24.384 26.6756C24.4715 26.3521 24.4492 25.9829 24.7221 25.7342V24.785C24.7267 24.5343 24.7835 24.2982 24.8404 24.0534C24.9735 23.4763 24.6848 22.9585 24.4426 22.4513C24.0859 22.4824 23.9648 22.0433 23.5923 22.0287C23.0446 21.8907 22.5491 22.1482 22.0648 22.4513C21.7873 22.9322 21.5805 23.4248 21.6392 24.0155C21.6997 24.6237 21.5395 25.2163 21.356 25.7808C21.0477 26.731 20.6621 27.65 19.9571 28.3767C19.8677 28.469 19.823 28.607 19.7578 28.7236H19.5482C19.5016 28.7722 19.4551 28.8207 19.4085 28.8693C19.252 29.2667 18.8431 29.3483 18.5693 29.5989C18.2899 29.8787 17.9583 30.1207 17.7432 30.4471C17.474 30.8551 16.958 30.8192 16.7177 31.1563C16.2911 31.2243 15.8953 31.3331 15.4985 31.337C15.1008 31.3409 14.7013 31.2389 14.3678 31.1923C14.0707 31.0213 13.8323 30.8571 13.5743 30.7425C13.3386 30.6375 13.2679 30.3295 13.0006 30.281C12.9316 29.9458 12.6932 29.7894 12.4166 29.6718C12.4166 29.5989 12.4166 29.5261 12.4166 29.4532C12.1828 29.393 11.7767 29.1103 11.5774 28.8693V28.7236C11.4749 28.6896 11.3427 28.6867 11.2747 28.6167C10.6236 27.9493 10.1226 27.1885 9.8357 26.2646C9.58515 25.4553 9.32809 24.648 9.3523 23.795C9.36814 23.2684 9.23309 22.8399 8.92014 22.4513C8.78416 22.3823 8.64166 22.326 8.51406 22.2434C7.84718 21.8072 7.36193 22.0199 6.79937 22.3959C6.73045 22.4416 6.62893 22.4338 6.54231 22.4513C6.54231 22.5232 6.57118 22.633 6.53765 22.6602C6.29642 22.8526 6.23588 23.1032 6.25078 23.4034C6.25358 23.4646 6.14461 23.5317 6.09338 23.589C6.37652 23.9873 6.22098 24.3993 6.26196 24.785C6.25917 26.0023 6.63824 27.1293 7.11697 28.2038C7.47649 29.0092 7.9366 29.767 8.51499 30.45C8.87264 30.8717 9.18186 31.3215 9.65407 31.6198C9.72393 31.6635 9.72486 31.8257 9.75746 31.9326C10.1412 31.9647 10.415 32.1677 10.5966 32.5165C10.6888 32.5806 10.7801 32.6457 10.8639 32.704C10.8574 33.2889 11.1108 33.83 11.0186 34.4061C11.012 34.445 11.0344 34.5023 11.0623 34.5305C11.243 34.7131 11.0716 34.9716 11.1666 35.1406C11.2933 35.3631 11.2812 35.5836 11.2989 35.8158C11.3213 36.1141 11.2989 36.4007 11.4097 36.7135C11.5597 37.1401 11.5299 37.6346 11.5746 38.1009C11.6128 38.4954 11.7897 38.8713 11.7152 39.2794C11.9639 39.4387 11.7776 39.7321 11.8997 39.9284C12.0785 40.216 12.2228 40.5414 12.4529 40.7765C12.6997 41.0291 13.0266 41.1962 13.3396 41.4148C14.4544 41.4148 15.5954 41.3896 16.7345 41.4246C17.3753 41.445 17.949 41.3828 18.3942 40.8358C18.5088 40.6949 18.995 40.1207 19.063 39.9498C19.0881 39.8876 19.1049 39.8225 19.1282 39.7593C19.2651 39.3736 19.2716 38.9588 19.3834 38.5604C19.4988 38.1475 19.4234 37.6851 19.5212 37.2372C19.5883 36.9312 19.6572 36.6047 19.6823 36.2832C19.7093 35.9344 19.6823 35.5924 19.8137 35.2455C19.9254 34.9521 19.9822 34.6043 19.9506 34.2925C19.9152 33.9408 20.0307 33.6211 20.1359 33.3433C20.2263 33.1043 20.2169 32.8896 20.2467 32.6632V32.4018C20.4721 32.3678 20.6631 32.3688 20.7981 32.1764C20.8456 32.1075 20.9872 32.1104 21.0859 32.0803L21.0869 32.0783Z" fill="#00A08D"/>
<path d="M20.2477 32.6614C20.2179 32.8877 20.2282 33.1025 20.1369 33.3415C20.0307 33.6203 19.9152 33.939 19.9515 34.2907C19.9832 34.6015 19.9264 34.9503 19.8146 35.2437C19.6824 35.5906 19.7103 35.9335 19.6833 36.2813C19.6582 36.6029 19.5892 36.9294 19.5222 37.2354C19.4244 37.6833 19.4998 38.1457 19.3843 38.5586C19.2726 38.957 19.266 39.3708 19.1291 39.7575C19.1068 39.8207 19.0891 39.8858 19.0639 39.9479C18.9959 40.1189 18.5098 40.6931 18.3952 40.834C17.95 41.3819 17.3763 41.4431 16.7355 41.4227C15.5964 41.3868 14.4554 41.413 13.3406 41.413C13.0276 41.1935 12.6998 41.0273 12.4539 40.7747C12.2248 40.5396 12.0795 40.2151 11.9006 39.9266C11.7786 39.7303 11.9649 39.4359 11.7162 39.2776C11.7917 38.8686 11.6138 38.4926 11.5756 38.0991C11.5309 37.6328 11.5607 37.1382 11.4107 36.7117C11.3008 36.3989 11.3232 36.1133 11.2999 35.814C11.2822 35.5818 11.2943 35.3613 11.1676 35.1388C11.0717 34.9707 11.2431 34.7123 11.0633 34.5287C11.0354 34.5005 11.013 34.4432 11.0195 34.4043C11.1117 33.8282 10.8584 33.287 10.8649 32.7022C10.7811 32.6429 10.6889 32.5788 10.5976 32.5147C10.171 32.4642 9.83761 32.8207 9.38309 32.8061C9.25176 32.982 9.10647 33.1773 8.94813 33.39H8.78048C8.71994 33.868 8.84289 34.3217 9.0776 34.7074C9.19309 34.8979 9.07387 35.2156 9.33559 35.2777C9.6355 35.3496 9.39054 35.6489 9.58613 35.7985C9.72584 35.9054 9.7277 36.2056 9.7957 36.4183C9.93913 36.8633 10.0854 37.3073 10.2307 37.7503C10.2977 37.7668 10.3601 37.7814 10.402 37.7921C10.47 38.0466 10.5278 38.2866 10.5995 38.5227C10.6973 38.8423 10.7755 39.1756 10.9245 39.467C10.9758 39.5681 11.1676 39.5671 11.1695 39.7906C11.1714 40.0072 11.2794 40.2239 11.3604 40.5075C11.3893 40.5318 11.4834 40.6076 11.5765 40.6834C11.8792 40.8641 11.9807 41.1983 12.1409 41.4888C12.4166 41.9882 12.8134 42.371 13.2409 42.7275C13.6461 43.0656 14.1388 43.1579 14.61 43.327C14.8773 43.4222 15.1288 43.4562 15.3952 43.4533C15.7305 43.4503 16.0565 43.3872 16.3881 43.3318C17.5029 43.1453 18.2182 42.4176 18.8432 41.5432C19.0341 41.2751 19.2893 41.0322 19.2828 40.6368C19.2809 40.5318 19.4505 40.423 19.5483 40.3074C19.5483 40.1986 19.511 40.0606 19.5538 39.9596C19.9879 38.9337 20.4359 37.9135 20.8801 36.8915H21.2266C21.2732 36.6942 21.2974 36.4873 21.371 36.3017C21.5917 35.7451 21.8255 35.1942 22.0714 34.6492C22.1273 34.5258 22.2511 34.4364 22.3452 34.3305V33.5367C22.1962 33.5601 22.0919 33.5008 21.9829 33.3871C21.778 33.1734 21.5461 32.9888 21.3421 32.8071C21.1186 32.8071 20.9314 32.8256 20.7488 32.8013C20.5784 32.7789 20.4144 32.71 20.2468 32.6614H20.2477Z" fill="#2D2D2D"/>
<path d="M18.1502 16.4697L18.3384 16.3929L18.0105 16.1938V15.0114H17.3437C17.284 14.205 17.2282 13.4414 17.1714 12.6778V12.532C16.8491 12.5796 16.7792 12.3154 16.6768 12.0948H16.3322C16.226 12.0725 16.0649 12.1667 16.0528 11.9491C15.1065 11.9326 14.4759 12.4475 14.0233 13.2617C13.9543 13.2617 13.8845 13.2617 13.8156 13.2617C13.8156 13.5716 13.8221 13.8815 13.8137 14.1914C13.8044 14.515 13.8519 14.8433 13.7876 15.1319C13.4877 15.0872 13.2316 15.0503 12.9764 15.0124V17.2003H13.3955C13.4421 17.1235 13.5287 17.0468 13.5287 16.97C13.5287 16.5503 13.796 16.3036 14.0298 16.017C14.2999 15.6847 14.6724 15.5283 15.0394 15.3039H15.9028C16.4346 15.5244 16.8435 15.8139 17.1434 16.2326C17.3772 16.5591 17.6231 16.8962 17.5914 17.346H18.0105V16.6164C18.0571 16.5678 18.1037 16.5192 18.1502 16.4707V16.4697Z" fill="#2D2D2D"/>
<path d="M21.2266 45.7898V37.4753H20.9853C20.7702 38.1389 20.4749 38.783 20.2123 39.4398C19.9915 39.9897 19.781 40.5561 19.5137 41.0914C19.374 41.3712 19.2446 41.6646 19.2688 41.9979C19.3154 42.0348 19.3619 42.0717 19.4085 42.1086C19.3619 42.1689 19.3154 42.2301 19.2688 42.2903C19.2688 42.5312 19.2874 42.7741 19.2641 43.0131C19.2399 43.2609 19.1756 43.5038 19.1291 43.7486C19.1756 43.8088 19.2595 43.8681 19.2623 43.9303C19.2762 44.2382 19.2865 44.5482 19.2632 44.8542C19.239 45.168 19.1747 45.4789 19.1281 45.7908H21.2256L21.2266 45.7898Z" fill="#7A7878"/>
<path d="M17.1714 8.30089C17.081 7.65385 16.6247 7.32255 16.1273 7H14.8597C14.3763 7.34198 13.8128 7.66551 13.8156 8.44663C14.0047 8.4476 13.9534 8.59819 13.9534 8.70408C13.9562 9.73683 13.9553 10.7696 13.9553 11.8023C14.2245 11.3836 14.6511 11.1776 15.0283 10.9367H16.0286C16.3546 11.1699 16.6927 11.4127 17.0317 11.6556C17.0317 10.6229 17.0307 9.59013 17.0335 8.55738C17.0335 8.45246 16.9823 8.30187 17.1714 8.29992V8.30089Z" fill="#61605F"/>
<path d="M19.2688 41.9978C19.2446 41.6645 19.374 41.3711 19.5137 41.0913C19.781 40.556 19.9915 39.9896 20.2123 39.4397C20.4749 38.7829 20.7702 38.1388 20.9853 37.4753H21.2266V36.8914H20.8801C20.4358 37.9144 19.9887 38.9335 19.5538 39.9595C19.5109 40.0605 19.5482 40.1995 19.5482 40.3073C19.4504 40.4219 19.2809 40.5308 19.2828 40.6367C19.2893 41.0321 19.035 41.2759 18.8431 41.5431C18.2182 42.4185 17.5029 43.1452 16.388 43.3317C16.0564 43.3871 15.7304 43.4502 15.3951 43.4531C15.1278 43.4551 14.8764 43.4221 14.61 43.3269C14.1378 43.1588 13.646 43.0665 13.2408 42.7274C12.8143 42.3709 12.4166 41.9881 12.1409 41.4887C11.9807 41.1982 11.8801 40.864 11.5765 40.6833C11.4144 40.8795 11.4358 41.1156 11.4358 41.3507C11.4377 43.8253 11.4367 46.2998 11.4367 48.8365C11.2216 48.9764 10.9794 49.1328 10.7373 49.2902C10.8285 49.365 10.9198 49.4408 11.0083 49.5136C10.9673 49.5632 10.9254 49.6137 10.8742 49.6759C10.9748 49.7458 11.0661 49.8099 11.1573 49.8741H11.4088L11.4619 50.4716L11.8568 50.6037V49.5826C11.9034 49.3883 11.9714 49.1959 11.9909 48.9977C12.0142 48.7617 11.9965 48.5207 11.9965 48.2827C11.9965 47.8533 11.9909 47.4238 12.003 46.9944C12.0049 46.9322 12.0896 46.872 12.1362 46.8108C12.2089 46.5388 11.9555 46.4552 11.8149 46.2094C11.7842 45.3409 11.7506 44.3985 11.7171 43.4561V41.9978C11.7301 41.8559 11.7432 41.7141 11.7646 41.4887C11.8698 41.7199 11.9332 41.8589 11.9965 41.9978C12.1567 42.4797 12.56 42.7731 12.8357 43.1646C13.0331 43.3103 13.225 43.4648 13.429 43.6008C14.0791 44.0361 14.7888 44.208 15.5628 44.1935C16.5072 44.176 17.3362 43.8952 18.0356 43.22C18.0896 43.1675 18.2033 43.1811 18.2899 43.1646C18.5293 42.879 18.6084 42.4525 18.9894 42.2892C19.0825 42.1921 19.1756 42.0949 19.2688 41.9978V41.9978Z" fill="#181111"/>
<path d="M11.9965 51.7707C11.9955 52.5236 12.3504 53.1221 12.7826 53.6759C12.9856 53.9372 13.2362 54.1578 13.4653 54.3968C13.5593 54.3968 13.6897 54.355 13.7382 54.4026C14.4367 55.0943 15.3159 55.0321 16.1495 54.9525C16.618 54.9078 17.1191 54.6707 17.5056 54.3783C18.1604 53.8828 18.6624 53.2115 18.98 52.4206C19.0378 52.2769 18.9884 52.0864 18.9884 51.9174C18.9418 51.8552 18.8617 51.7969 18.8543 51.7299C18.831 51.5025 18.8329 51.2723 18.8198 50.906C18.5534 51.7134 18.3308 52.0485 17.5075 52.6684C16.9207 53.1104 16.2278 53.3106 15.56 53.3407C14.8633 53.3718 14.1256 53.1639 13.5351 52.7072C12.9754 52.2749 12.3616 51.8649 12.1744 51.0653C12.1353 51.2781 12.1436 51.4685 12.1287 51.658C12.1259 51.6998 12.0421 51.7347 11.9955 51.7726L11.9965 51.7707Z" fill="#61605F"/>
<path d="M11.9966 51.7707C12.0432 51.7328 12.127 51.6978 12.1298 51.656C12.1447 51.4675 12.1363 51.2761 12.1754 51.0634C12.3636 51.863 12.9764 52.272 13.5362 52.7053C14.1276 53.1619 14.8644 53.3698 15.561 53.3387C16.2279 53.3096 16.9209 53.1085 17.5086 52.6664C18.3319 52.0466 18.5545 51.7124 18.8209 50.904C18.833 51.2703 18.8311 51.5006 18.8553 51.7279C18.8619 51.795 18.9429 51.8532 18.9895 51.9154C19.036 51.7192 19.1003 51.5249 19.1245 51.3257C19.1478 51.1362 19.1292 50.941 19.1292 50.7486C19.1292 50.4192 19.1366 50.0899 19.1227 49.7605C19.1199 49.6993 19.036 49.641 18.9895 49.5808C18.9494 49.5983 18.8749 49.6158 18.8758 49.6313C18.8879 50.2405 18.5163 50.6514 18.182 51.0731C17.7796 51.5812 17.2347 51.8979 16.6601 52.1894C16.0286 52.2156 15.3952 52.4906 14.7097 52.2244C14.1137 51.9922 13.5381 51.759 13.0472 51.3315C12.5182 50.871 12.2704 50.2385 12.0748 49.5798H11.8569V50.6009C11.9035 50.9895 11.95 51.3791 11.9966 51.7677V51.7707Z" fill="#4D4D4D"/>
<path d="M18.0105 17.345H17.5913V18.0746C17.7981 18.0503 17.9723 18.1591 18.1613 18.2087C18.8161 18.3806 19.4523 18.6896 19.9431 18.9801C20.6668 19.4085 21.2107 20.0342 21.7863 20.6307C21.7863 20.7998 21.7863 20.9688 21.7863 21.1379C21.8599 21.1826 21.9325 21.2273 22.0229 21.2817C22.1151 21.1398 22.211 20.9921 22.2995 20.8552C22.4159 20.8425 22.523 20.8299 22.6255 20.8192C22.6255 20.7007 22.6255 20.6278 22.6255 20.5549C22.2529 20.0692 21.8794 19.5824 21.5069 19.0967C21.437 19.0967 21.3448 19.1268 21.302 19.0918C21.0831 18.9082 20.8773 18.708 20.6677 18.5137C20.5988 18.5137 20.4982 18.5448 20.4647 18.5089C20.1042 18.1183 19.6134 17.9755 19.1645 17.7579C18.9139 17.6364 18.6336 17.582 18.369 17.4917C18.247 17.4499 18.1297 17.3955 18.0105 17.3469V17.345Z" fill="#61605F"/>
<path d="M13.3955 17.1992H12.9764V17.4518C12.0608 17.6374 11.2375 18.0989 10.4411 18.5244L10.1794 18.366H10.0397V18.5118C10.0388 18.9091 9.7305 19.051 9.47995 19.2414C9.04872 19.5348 8.84661 20.0371 8.50106 20.4082C8.47871 20.7968 8.83264 20.8862 8.99656 21.1612L9.0599 20.9921C9.36167 20.3052 9.89442 19.8195 10.457 19.3988C11.3371 18.7411 12.3319 18.3145 13.3946 18.0746V17.1992H13.3955Z" fill="#61605F"/>
<path d="M9.05996 20.9923L8.99663 21.1613C8.83177 20.8864 8.47784 20.797 8.50113 20.4084C8.11739 20.3481 7.74763 20.489 7.41699 20.6231C7.08076 20.7591 6.81345 21.0816 6.56384 21.2837C6.50144 21.6267 6.45207 21.8929 6.40364 22.1591C6.6132 22.1717 6.52286 22.3398 6.54335 22.4506C6.62997 22.4331 6.73149 22.4408 6.80041 22.3952C7.36297 22.0182 7.84822 21.8064 8.5151 22.2426C8.64177 22.3262 8.7852 22.3825 8.92118 22.4506C9.01432 22.2485 9.08324 22.0289 9.20619 21.8492C9.40085 21.5664 9.34031 21.2847 9.31423 20.9923H9.06089H9.05996Z" fill="#F9D8A4"/>
<path d="M18.9893 49.5827C19.0359 49.6419 19.1207 49.7002 19.1225 49.7624C19.1356 50.0908 19.129 50.4211 19.129 50.7505C19.2706 50.7019 19.4122 50.6533 19.5593 50.6038V49.8868C19.9859 49.8372 20.1554 50.2861 20.4954 50.3531C20.5606 50.5183 20.6267 50.6844 20.7012 50.8739H21.179C21.2256 50.8253 21.2917 50.7563 21.3616 50.6834V49.2213C21.2209 49.1464 21.0691 49.0668 20.8847 48.9696C20.7841 49.126 20.6891 49.2737 20.5755 49.4515C20.2551 49.2562 19.9207 49.0522 19.5472 48.8239V47.8339C19.4075 47.6396 19.2678 47.4453 19.1281 47.25C19.0815 47.3122 18.9819 47.4074 18.9958 47.4317C19.1719 47.7358 19.2306 48.0282 19.0024 48.3372C18.9679 48.3838 18.9614 48.5004 18.9931 48.5431C19.2548 48.8958 19.0713 49.2387 18.9884 49.5846L18.9893 49.5827Z" fill="#181111"/>
<path d="M22.6255 20.5539V20.8182C22.523 20.8299 22.4159 20.8415 22.2995 20.8542C22.2101 20.9911 22.1151 21.1388 22.0229 21.2807C21.9335 21.2263 21.8599 21.1816 21.7863 21.1369C21.5534 21.1621 21.6252 21.3739 21.6568 21.4653C21.7714 21.8014 21.9269 22.123 22.0666 22.4494C22.551 22.1473 23.0465 21.8898 23.5941 22.0268C23.9667 22.0404 24.0878 22.4795 24.4445 22.4494C24.4659 22.3387 24.3756 22.1706 24.5842 22.158C24.6028 21.5925 24.2833 21.1796 24.0188 20.7473C23.7757 20.6802 23.5503 20.5928 23.3175 20.5598C23.0912 20.5287 22.8574 20.553 22.6264 20.553L22.6255 20.5539Z" fill="#F9D8A4"/>
<path d="M17.0316 11.6557C16.6926 11.4128 16.3545 11.1699 16.0285 10.9368H15.0282C14.651 11.1777 14.2244 11.3837 13.9553 11.8024V12.7448C14.4862 11.7878 15.4222 11.6654 16.0518 11.8782C16.0583 11.8801 16.0518 11.9239 16.0518 11.9481C16.158 11.9705 16.3191 11.8762 16.3312 12.0939H16.6758C16.7783 12.3144 16.8482 12.5796 17.1704 12.5311V12.0939C16.9012 12.0259 17.0838 11.7995 17.0307 11.6567L17.0316 11.6557Z" fill="#4D4D4D"/>
<path d="M10.1794 18.3661L10.4411 18.5245C11.2374 18.099 12.0598 17.6375 12.9763 17.4519V16.6154C12.5274 16.596 12.085 16.6047 11.6817 16.8612C11.6463 16.8836 11.555 16.8107 11.4852 16.7796C11.4535 16.8632 11.4218 16.9457 11.3855 17.0439C11.3026 17.0477 11.2123 17.0516 11.0819 17.0584C10.7429 17.4393 10.2967 17.7745 10.1803 18.3661H10.1794Z" fill="#DCDCDB"/>
<path d="M19.1291 47.2489C19.2688 47.4432 19.4085 47.6375 19.5482 47.8328C19.8481 47.895 20.1489 47.9581 20.3352 47.997C21.0812 47.7026 21.2917 47.1916 21.2256 46.5203H19.1281V47.2499L19.1291 47.2489Z" fill="#7A7878"/>
<path d="M20.6669 18.5119C20.8774 18.7062 21.0832 18.9063 21.3011 19.09C21.3431 19.1249 21.4362 19.0948 21.5061 19.0948C21.615 19.0152 21.724 18.9355 21.8805 18.8208H22.3015C22.5213 19.053 22.7485 19.294 22.973 19.532H23.4461C23.5095 19.3892 23.5812 19.2269 23.6594 19.0492C23.3856 18.8004 23.1481 18.5809 22.9069 18.3671C22.6852 18.1699 22.4589 17.9775 22.1878 17.7424C21.927 17.894 21.6458 18.0582 21.3654 18.2214C21.3105 18.27 21.2611 18.3506 21.1996 18.3603C21.0711 18.3817 20.937 18.3671 20.8057 18.3671C20.7591 18.4157 20.7125 18.4643 20.6659 18.5129L20.6669 18.5119Z" fill="#939393"/>
<path d="M6.54342 22.4504C6.522 22.3396 6.61234 22.1716 6.40371 22.1589C5.4835 22.9498 5.24693 23.2335 5.00104 23.8407C5.06438 24.2575 5.36894 24.5091 5.63904 24.784C5.84767 24.784 6.05537 24.784 6.264 24.784C6.22302 24.3983 6.37856 23.9864 6.09542 23.5881C6.14665 23.5308 6.25562 23.4637 6.25283 23.4025C6.23792 23.1023 6.29847 22.8516 6.53969 22.6593C6.57322 22.633 6.54435 22.5223 6.54435 22.4504H6.54342Z" fill="#181111"/>
<path d="M9.48003 19.2415C9.73057 19.0521 10.0379 18.9102 10.0398 18.5119C9.99323 18.4633 9.94666 18.4148 9.90009 18.3662C9.49866 18.3186 9.26581 17.9717 8.88022 17.7454C8.38565 18.1622 7.87059 18.5974 7.38348 19.0084C7.38348 19.1415 7.36205 19.225 7.38906 19.2843C7.42632 19.3669 7.50083 19.432 7.56789 19.5165H7.94417C8.17702 19.2736 8.40428 19.0356 8.5235 18.9112C8.98546 18.6994 9.22762 18.8879 9.48189 19.021C9.48189 19.0939 9.48189 19.1667 9.48189 19.2396L9.48003 19.2415Z" fill="#939393"/>
<path d="M24.5834 22.1589C24.3738 22.1716 24.4641 22.3396 24.4437 22.4504C24.6858 22.9566 24.9745 23.4754 24.8414 24.0525C24.7845 24.2983 24.7277 24.5334 24.7231 24.784C25.4831 24.7704 25.6815 24.6199 26 23.7804C25.6973 23.1062 25.1319 22.6408 24.5834 22.1589Z" fill="#181111"/>
<path d="M12.9755 15.0114C13.2307 15.0493 13.4868 15.0872 13.7867 15.1309C13.851 14.8423 13.8035 14.513 13.8128 14.1904C13.8212 13.8805 13.8147 13.5706 13.8147 13.2607V12.6768H13.1757C13.1273 12.7389 13.0705 12.8128 12.9755 12.9362V15.0104V15.0114Z" fill="#939393"/>
<path d="M11.1584 49.8741C11.0672 49.81 10.9759 49.7459 10.8753 49.6759C10.9265 49.6138 10.9684 49.5632 11.0094 49.5137C10.9209 49.4408 10.8297 49.3651 10.7384 49.2902C10.5031 49.2734 10.2631 49.1762 10.0184 48.9988C9.99701 49.0036 9.97 49.0017 9.95603 49.0143C9.83495 49.1251 9.71573 49.2388 9.62259 49.3272V50.6786C9.67475 50.733 9.72411 50.7845 9.80142 50.8651H10.3137C10.3658 50.733 10.4385 50.5484 10.5223 50.3346C10.7244 50.2171 11.0485 50.2064 11.1584 49.8732V49.8741Z" fill="#2D2D2D"/>
<path d="M19.129 46.5194H21.2265C21.3662 46.4728 21.5069 46.4262 21.6335 46.3834V45.7898H19.129V46.5194V46.5194Z" fill="#B1B1B1"/>
<path d="M17.1713 12.6768C17.2272 13.4404 17.284 14.204 17.3436 15.0104H18.0105V12.8954C17.9388 12.8205 17.8903 12.77 17.8009 12.6768H17.1713V12.6768Z" fill="#939393"/>
<path d="M20.2478 32.6613C20.4145 32.7099 20.5793 32.7789 20.7498 32.8012C20.9323 32.8255 21.1195 32.8071 21.3431 32.8071C21.547 32.9888 21.779 33.1733 21.9839 33.3871C22.0938 33.5008 22.1971 33.56 22.3462 33.5367C22.3862 33.1461 22.2828 32.8129 22.0127 32.5282C21.7547 32.2572 21.4837 32.0318 21.0869 32.0774C20.9882 32.1076 20.8466 32.1046 20.7991 32.1736C20.6641 32.366 20.4731 32.365 20.2478 32.399V32.6604V32.6613Z" fill="#4D4D4D"/>
<path d="M20.8074 18.3661C20.9387 18.3661 21.0729 18.3806 21.2014 18.3593C21.2619 18.3486 21.3122 18.2689 21.3672 18.2203C21.0999 18.1873 21.2675 17.9551 21.2061 17.8249C20.8428 17.0496 20.3175 16.4638 19.4811 16.1636C19.333 16.2277 19.157 16.3054 18.9921 16.3763V16.5813H19.808C20.0241 16.8398 20.1815 17.0623 20.3725 17.2478C20.6882 17.5548 20.8642 17.9075 20.8084 18.3661H20.8074Z" fill="#FAFAF8"/>
<path d="M8.78052 33.3909H8.94817C9.10744 33.1781 9.2518 32.9838 9.38313 32.807C9.83764 32.8216 10.1711 32.465 10.5977 32.5155C10.416 32.1668 10.1422 31.9637 9.75847 31.9316C9.34401 31.92 9.21361 32.3193 8.97518 32.5476C8.75444 32.7594 8.7563 33.0858 8.77959 33.3899L8.78052 33.3909Z" fill="#4D4D4D"/>
<path d="M13.8148 12.6767V13.2606C13.8837 13.2606 13.9535 13.2606 14.0225 13.2606C14.4751 12.4464 15.1057 11.9315 16.052 11.948C16.052 11.9237 16.0575 11.88 16.052 11.8781C15.4223 11.6653 14.4863 11.7877 13.9554 12.7447V12.0937H13.8157V12.6776L13.8148 12.6767Z" fill="#181111"/>
<path d="M17.0317 11.6555C17.0848 11.7993 16.9022 12.0247 17.1714 12.0927V8.30078C16.9823 8.30175 17.0335 8.45234 17.0335 8.55824C17.0307 9.59099 17.0317 10.6237 17.0317 11.6565V11.6555Z" fill="#3B3A3A"/>
<path d="M13.8146 12.0937H13.9543V11.8022C13.9543 10.7695 13.9552 9.73674 13.9524 8.70399C13.9524 8.59907 14.0036 8.44848 13.8146 8.44653L13.8146 12.0937Z" fill="#3B3A3A"/>
<path d="M9.89911 18.366C9.94568 18.4145 9.99225 18.4631 10.0388 18.5117V18.366H9.89911Z" fill="#DCDCDB"/>
<path d="M18.1501 16.4697C18.1036 16.5183 18.057 16.5669 18.0104 16.6155C18.057 16.5669 18.1036 16.5183 18.1501 16.4697Z" fill="#FAFAF8"/>
<path d="M9.05982 20.9922H9.31316C9.33924 21.2847 9.39978 21.5664 9.20512 21.8491C9.08218 22.0289 9.01325 22.2484 8.92012 22.4505C9.23306 22.8391 9.36811 23.2676 9.35228 23.7942C9.32713 24.6472 9.5842 25.4545 9.83567 26.2638C10.1225 27.1878 10.6227 27.9485 11.2747 28.6159C11.3427 28.6859 11.4749 28.6888 11.5774 28.7228V24.7842C11.5774 23.9632 11.5755 23.1432 11.5792 22.3223C11.5792 22.1824 11.5755 22.0337 11.6174 21.9045C11.8819 21.0845 12.2824 20.3394 12.9465 19.8108C13.1551 19.6447 13.3451 19.3591 13.6758 19.3873C13.6544 19.2308 13.6646 19.0841 13.6003 18.918C13.4988 18.6557 13.3433 18.3856 13.3964 18.0737C12.3337 18.3137 11.338 18.7402 10.4588 19.3979C9.89621 19.8186 9.36346 20.3044 9.06169 20.9913L9.05982 20.9922Z" fill="#FAFAF8"/>
<path d="M22.0659 22.4504C21.9262 22.1239 21.7707 21.8023 21.6561 21.4662C21.6244 21.3739 21.5527 21.1631 21.7856 21.1378C21.7856 20.9688 21.7856 20.7997 21.7856 20.6307C21.21 20.0341 20.666 19.4085 19.9424 18.98C19.4515 18.6895 18.8154 18.3806 18.1606 18.2086C17.9715 18.1591 17.7964 18.0502 17.5906 18.0745C17.5533 18.2951 17.6521 18.5205 17.4658 18.7439C17.3419 18.8926 17.3578 19.1685 17.3112 19.3871C17.3578 19.3871 17.4136 19.3686 17.4481 19.39C18.1103 19.7922 18.6412 20.3188 18.9998 21.0445C19.1563 21.3603 19.3174 21.6469 19.269 22.0132C19.5717 22.19 19.5493 22.4941 19.5493 22.7904C19.5493 24.7685 19.5493 26.7455 19.5493 28.7236H19.7589C19.8241 28.607 19.8688 28.4681 19.9582 28.3768C20.6632 27.65 21.0488 26.7319 21.3571 25.7808C21.5406 25.2163 21.7008 24.6237 21.6403 24.0155C21.5816 23.4248 21.7884 22.9322 22.0659 22.4513V22.4504Z" fill="#FAFAF8"/>
<path d="M12.4168 29.4524C12.4168 29.5253 12.4168 29.5982 12.4168 29.671C12.6934 29.7886 12.9327 29.946 13.0007 30.2802C13.268 30.3288 13.3388 30.6368 13.5745 30.7417C13.8325 30.8563 14.0718 31.0205 14.368 31.1915C14.7024 31.2381 15.101 31.3392 15.4987 31.3363C15.8955 31.3324 16.2923 31.2236 16.7179 31.1556C16.9582 30.8184 17.4742 30.8544 17.7434 30.4463C17.9585 30.1199 18.2901 29.878 18.5695 29.5982L18.4764 29.5613C18.5546 29.33 18.6319 29.0988 18.7092 28.8685C18.6878 28.7578 18.7781 28.5897 18.5695 28.5771C18.5295 28.5946 18.4671 28.6004 18.454 28.6305C18.1681 29.2513 17.7061 29.6992 17.1454 30.0325C16.4646 30.4366 15.7074 30.5979 14.9511 30.4473C14.5925 30.3754 14.2013 30.2715 13.8632 30.0286C13.2028 29.5545 12.6524 29.0065 12.3925 28.1924C12.3832 28.1642 12.3171 28.1564 12.2771 28.1399C12.1085 28.1477 12.0992 28.2798 12.1606 28.374C12.3348 28.6393 12.2705 28.9725 12.4121 29.2455C12.44 29.2989 12.4158 29.3825 12.4158 29.4524H12.4168Z" fill="#61605F"/>
<path d="M18.5693 28.5769C18.7789 28.5895 18.6885 28.7576 18.709 28.8684H19.4085C19.4551 28.8198 19.5016 28.7712 19.5482 28.7226C19.5482 26.7446 19.5482 24.7675 19.5482 22.7894C19.5482 22.4931 19.5706 22.19 19.2679 22.0122C19.1142 22.2862 19.0695 22.567 19.1803 22.8759C19.2334 23.0236 19.2604 23.1897 19.2641 23.3481C19.2744 23.8815 19.252 24.4168 19.2744 24.9501C19.2865 25.2484 19.1636 25.4592 19.0127 25.7429C18.777 25.4923 18.5805 25.365 18.5386 25.0123C18.5097 24.7685 18.3318 24.442 18.0142 24.3468H17.7292C17.8438 24.5392 17.9453 24.7413 18.0748 24.922C18.451 25.4456 18.7249 26.0052 18.7081 26.6805C18.7454 26.901 18.6597 27.1215 18.8255 27.3547C18.9093 27.4723 18.7547 27.7744 18.7081 27.994H19.1393C19.1179 28.1261 19.1049 28.2077 19.0853 28.3311C18.9344 28.2544 18.8217 28.197 18.7081 28.1397C18.4389 28.2077 18.6215 28.4341 18.5684 28.5769H18.5693Z" fill="#3B3A3A"/>
<path d="M12.4165 29.4524C12.4165 29.3825 12.4407 29.2989 12.4128 29.2455C12.2703 28.9735 12.3355 28.6402 12.1613 28.374C12.0999 28.2798 12.1082 28.1477 12.2778 28.1399C12.2452 28.0146 12.2126 27.8892 12.138 27.6055C12.138 27.5171 12.1353 27.2577 12.138 26.9993C12.1418 26.7127 12.2088 26.4494 12.4165 26.2444V25.5148C12.3262 25.1786 11.9881 25.5177 11.826 25.2369C11.826 24.3101 11.826 23.3278 11.8242 22.3466C11.8242 22.3369 11.7934 22.3272 11.718 22.2815V22.7245C11.718 23.3259 11.7199 23.9273 11.7161 24.5287C11.7161 24.6336 11.7674 24.7852 11.5783 24.7861V25.6615C11.6249 25.6994 11.7115 25.7373 11.7124 25.7761C11.7199 26.769 11.7199 27.762 11.7124 28.7558C11.7124 28.7947 11.6249 28.8326 11.5783 28.8705C11.7776 29.1114 12.1837 29.3942 12.4175 29.4544L12.4165 29.4524Z" fill="#2D2D2D"/>
<path d="M11.5776 28.8684C11.6241 28.8305 11.7108 28.7926 11.7117 28.7538C11.7191 27.7609 11.7191 26.768 11.7117 25.7741C11.7117 25.7352 11.6241 25.6973 11.5776 25.6594V28.8684Z" fill="#181111"/>
<path d="M19.4087 28.8684H18.7092C18.6319 29.0987 18.5546 29.3299 18.4764 29.5611L18.5695 29.598C18.8433 29.3484 19.2522 29.2658 19.4087 28.8684Z" fill="#2D2D2D"/>
<path d="M17.3111 19.3871C17.3576 19.1685 17.3418 18.8926 17.4657 18.7439C17.6529 18.5195 17.5532 18.2951 17.5905 18.0745V17.3449C17.6222 16.8951 17.3763 16.557 17.1425 16.2315C16.8426 15.8138 16.4337 15.5233 15.9019 15.3027H15.0385C14.6715 15.5272 14.299 15.6836 14.0289 16.0158C13.796 16.3025 13.5269 16.5483 13.5278 16.9689C13.5278 17.0457 13.4412 17.1224 13.3946 17.1992V18.0745C13.3415 18.3854 13.497 18.6565 13.5986 18.9188C13.6628 19.084 13.6526 19.2316 13.674 19.3881H13.9534V19.6795C14.0931 19.7281 14.2328 19.7767 14.3726 19.8253C14.4471 19.5523 14.1881 19.4697 14.0931 19.2938C14.0931 18.8353 14.0931 18.3757 14.0931 17.9172C14.0931 17.8938 14.0978 17.8705 14.1006 17.8462C14.4061 17.6267 14.4554 17.1866 14.868 17.0146C15.262 16.8504 15.6262 16.9816 15.9745 16.9019C16.0314 16.9612 16.0593 17.0156 16.0975 17.0262C16.5064 17.1438 16.7346 17.4916 16.8547 17.8472C16.9851 18.2319 17.1891 18.6497 16.9022 19.0985C16.7793 19.2909 16.796 19.5804 16.7495 19.8262C16.9357 19.6805 17.122 19.5348 17.3092 19.389L17.3111 19.3871Z" fill="#939393"/>
<path d="M16.3323 12.0938C16.3202 11.8752 16.159 11.9694 16.0529 11.9481C16.065 12.1667 16.2261 12.0724 16.3323 12.0938Z" fill="#181111"/>
<path d="M19.1292 46.5193V45.7897C19.1758 45.4778 19.2401 45.1669 19.2643 44.8531C19.2876 44.5471 19.2773 44.2362 19.2633 43.9292C19.2605 43.867 19.1767 43.8078 19.1301 43.7475C19.2484 44.2488 18.8274 44.5966 18.8116 44.994C18.6123 45.2408 18.4614 45.4497 18.2882 45.6362C18.1252 45.8111 17.9464 45.9733 17.7601 46.122C17.178 46.5864 16.5502 46.9478 15.793 46.9546C15.2593 46.9594 14.7489 46.9594 14.2255 46.6893C13.5744 46.3532 13.0184 46.0268 12.6197 45.4973C12.1755 44.9075 11.8309 44.2858 11.8327 43.5075C11.8327 43.491 11.7582 43.4735 11.7191 43.4561C11.7526 44.3985 11.7862 45.3408 11.8169 46.2094C11.9575 46.4552 12.2109 46.5397 12.1382 46.8108C12.4558 46.8788 12.4568 47.2324 12.6412 47.4287C13.1301 47.9533 13.6797 48.374 14.3391 48.6907C14.7014 48.7412 15.0982 48.8403 15.4959 48.8403C15.8926 48.8403 16.2903 48.7412 16.6983 48.683C17.0774 48.4537 17.4592 48.1884 17.8681 47.9844C18.3543 47.7425 18.4456 47.1537 18.8386 46.8992C18.8545 46.737 18.8666 46.6252 18.8768 46.5184H19.1301L19.1292 46.5193Z" fill="#C24041"/>
<path d="M11.7171 43.4561C11.7571 43.4736 11.8307 43.4901 11.8307 43.5076C11.8289 44.2858 12.1735 44.9066 12.6177 45.4973C13.0164 46.0268 13.5724 46.3522 14.2235 46.6894C14.7469 46.9604 15.2573 46.9604 15.791 46.9546C16.5482 46.9478 17.176 46.5864 17.7581 46.122C17.9443 45.9733 18.1232 45.8111 18.2862 45.6362C18.4594 45.4497 18.6103 45.2408 18.8096 44.994C18.8254 44.5976 19.2464 44.2498 19.1281 43.7475C19.1747 43.5027 19.239 43.2589 19.2632 43.0121C19.2865 42.7731 19.2678 42.5302 19.2678 42.2893H18.9884C18.6075 42.4525 18.5293 42.879 18.289 43.1646C18.1493 43.9593 17.6146 44.4616 17.0372 44.8978C16.8798 45.0164 16.7578 45.3146 16.47 45.2068C16.1207 45.4662 15.723 45.3341 15.3476 45.3477C14.651 45.3729 14.0744 45.0591 13.5705 44.584C13.3647 44.3897 13.1766 44.176 12.9828 43.9739C12.9335 43.7019 12.8841 43.4328 12.8357 43.1636C12.56 42.7711 12.1567 42.4787 11.9965 41.9968H11.7171V42.434C11.909 42.5807 11.909 42.7245 11.7171 42.8712V43.4551V43.4561Z" fill="#FA4041"/>
<path d="M18.9896 42.2893H19.269C19.3156 42.229 19.3621 42.1678 19.4087 42.1076C19.3621 42.0707 19.3156 42.0337 19.269 41.9968C19.1758 42.094 19.0827 42.1911 18.9896 42.2883V42.2893Z" fill="#C24041"/>
<path d="M19.1291 46.5195H18.8757C18.8646 46.6264 18.8534 46.7381 18.8375 46.9004C18.4445 47.1549 18.3532 47.7427 17.867 47.9856C17.4582 48.1896 17.0763 48.4548 16.6972 48.6841C16.2883 48.7414 15.8916 48.8415 15.4948 48.8415C15.098 48.8415 14.7003 48.7424 14.338 48.6919C13.6786 48.3752 13.1291 47.9545 12.6401 47.4299C12.4566 47.2326 12.4547 46.88 12.1371 46.812C12.0906 46.8732 12.0049 46.9334 12.004 46.9956C11.9918 47.425 11.9974 47.8544 11.9974 48.2839C11.9974 48.5229 12.0151 48.7628 11.9918 48.9989C11.9723 49.1961 11.9043 49.3885 11.8577 49.5838H12.0757C12.2713 50.2425 12.519 50.874 13.048 51.3355C13.5389 51.7629 14.1145 51.9961 14.7106 52.2283C15.3961 52.4945 16.0294 52.2196 16.6609 52.1933C17.2346 51.9019 17.7795 51.5852 18.1828 51.077C18.5172 50.6554 18.8888 50.2444 18.8767 49.6353C18.8767 49.6188 18.9512 49.6013 18.9903 49.5847C19.0732 49.2389 19.2567 48.8959 18.995 48.5433C18.9633 48.5005 18.9707 48.3839 19.0043 48.3373C19.2325 48.0283 19.1738 47.7359 18.9977 47.4318C18.9838 47.4075 19.0834 47.3123 19.13 47.2501C19.13 47.0072 19.13 46.7644 19.13 46.5205L19.1291 46.5195Z" fill="#2D2D2D"/>
<path d="M12.8358 43.1648C12.8842 43.4339 12.9336 43.7021 12.9829 43.9751C13.1767 44.1771 13.3648 44.3909 13.5707 44.5852C14.0745 45.0603 14.6511 45.3731 15.3477 45.3488C15.724 45.3352 16.1217 45.4673 16.4701 45.2079C16.7579 45.3158 16.8799 45.0185 17.0373 44.899C17.6157 44.4618 18.1494 43.9595 18.2891 43.1658C18.2034 43.1823 18.0897 43.1687 18.0348 43.2211C17.3353 43.8964 16.5064 44.1771 15.562 44.1946C14.787 44.2092 14.0773 44.0372 13.4282 43.602C13.2251 43.466 13.0323 43.3115 12.8349 43.1658L12.8358 43.1648Z" fill="#C24041"/>
<path d="M11.7172 41.9979H11.9966C11.9332 41.8589 11.8699 41.72 11.7647 41.4888C11.7432 41.7142 11.7302 41.856 11.7172 41.9979Z" fill="#C24041"/>
<path d="M11.7172 42.8723C11.9091 42.7255 11.9091 42.5818 11.7172 42.4351V42.8723Z" fill="#C24041"/>
<path d="M13.9543 19.6786V19.3872H13.6749C13.3452 19.359 13.1552 19.6456 12.9457 19.8108C12.2806 20.3393 11.8811 21.0845 11.6166 21.9045C11.5747 22.0337 11.5793 22.1823 11.5784 22.3222C11.5756 23.1432 11.5765 23.9631 11.5765 24.7841C11.7665 24.7822 11.7134 24.6316 11.7144 24.5266C11.7181 23.9253 11.7162 23.3239 11.7162 22.7225V22.2795C11.7926 22.3251 11.8224 22.3348 11.8224 22.3446C11.8243 23.3258 11.8243 24.308 11.8243 25.2349C11.9863 25.5157 12.3244 25.1766 12.4148 25.5128C12.6243 25.5001 12.534 25.3321 12.5545 25.2213C12.0599 25.0435 12.3486 24.7161 12.4269 24.4402C12.3691 24.3761 12.3226 24.3246 12.276 24.2721C12.5573 23.5114 12.3375 22.7167 12.4269 21.955C12.4706 21.8714 12.5144 21.7927 12.5535 21.7121C12.9158 20.9562 13.267 20.1926 13.9525 19.6777L13.9543 19.6786Z" fill="#181111"/>
<path d="M13.9543 19.6787C13.2697 20.1937 12.9186 20.9573 12.5553 21.7131C12.5162 21.7938 12.4724 21.8725 12.4286 21.956C12.3392 22.7177 12.559 23.5124 12.2778 24.2732C12.3243 24.3247 12.3709 24.3771 12.4286 24.4412C12.3504 24.7172 12.0608 25.0446 12.5563 25.2224C12.7919 25.1106 12.8813 24.8687 13.0322 24.6764C13.4774 24.1129 14.0921 23.8301 14.759 23.6009C15.4696 23.357 16.103 23.5115 16.7512 23.7631V23.4736C16.9217 23.561 17.0474 23.6251 17.1703 23.6883V23.9088H17.3101C17.623 23.939 17.7003 24.0196 17.7292 24.346H18.0142C18.3318 24.4412 18.5106 24.7677 18.5386 25.0115C18.5795 25.3632 18.777 25.4905 19.0126 25.7421C19.1635 25.4584 19.2865 25.2486 19.2744 24.9494C19.252 24.416 19.2744 23.8816 19.2641 23.3473C19.2613 23.1889 19.2334 23.0228 19.1803 22.8751C19.0694 22.5662 19.1142 22.2854 19.2678 22.0114C19.3172 21.6451 19.1551 21.3576 18.9987 21.0428C18.6391 20.317 18.1092 19.7905 17.447 19.3882C17.4125 19.3669 17.3557 19.3853 17.3101 19.3853C17.1238 19.5311 16.9375 19.6768 16.7503 19.8225C16.6199 20.0848 16.2902 20.0334 16.1337 20.2461C15.505 20.2879 14.8745 20.3452 14.3734 19.8225C14.2337 19.774 14.094 19.7254 13.9543 19.6768V19.6787Z" fill="#2D2D2D"/>
<path d="M12.4166 26.2434C12.208 26.4484 12.1418 26.7126 12.1381 26.9983C12.1344 27.2577 12.1381 27.5161 12.1381 27.6045C12.2126 27.8892 12.2452 28.0135 12.2778 28.1389C12.3179 28.1563 12.384 28.1641 12.3933 28.1913C12.6541 29.0055 13.2045 29.5534 13.864 30.0275C14.2021 30.2704 14.5932 30.3744 14.9518 30.4463C15.7081 30.5969 16.4653 30.4356 17.1462 30.0314C17.7069 29.6982 18.1688 29.2503 18.4548 28.6295C18.4687 28.5994 18.5311 28.5935 18.5703 28.576C18.6234 28.4323 18.4408 28.2069 18.71 28.1389V27.9931C18.7565 27.7745 18.9112 27.4724 18.8273 27.3538C18.6615 27.1207 18.7472 26.9011 18.71 26.6796C18.6634 26.6417 18.5889 26.6116 18.574 26.563C18.3747 25.8761 17.9295 25.3262 17.3921 24.9833C16.6153 24.4888 15.7659 24.1303 14.7721 24.4693C14.1937 24.6666 13.6535 24.8677 13.2278 25.3262C12.9503 25.6245 12.6867 25.9364 12.4166 26.2424V26.2434Z" fill="#B1B1B1"/>
<path d="M12.4166 26.2434C12.6867 25.9374 12.9503 25.6255 13.2278 25.3272C13.6535 24.8696 14.1937 24.6685 14.7721 24.4703C15.7658 24.1303 16.6153 24.4888 17.392 24.9843C17.9304 25.3272 18.3756 25.8771 18.574 26.564C18.588 26.6126 18.6634 26.6417 18.71 26.6806C18.7267 26.0054 18.4529 25.4458 18.0766 24.9221C17.9472 24.7414 17.8456 24.5393 17.7311 24.3469C17.4181 24.3168 17.3408 24.2362 17.312 23.9097H17.1722C17.0325 23.8612 16.8928 23.8126 16.7531 23.764C16.1049 23.5114 15.4715 23.3569 14.7609 23.6018C14.0949 23.8311 13.4793 24.1138 13.0341 24.6773C12.8823 24.8696 12.7938 25.1115 12.5581 25.2233C12.5367 25.334 12.6271 25.5021 12.4184 25.5147V26.2444L12.4166 26.2434Z" fill="#DCDCDB"/>
<path d="M18.7091 27.9941V28.1399C18.8218 28.1972 18.9345 28.2545 19.0864 28.3313C19.1059 28.2069 19.1199 28.1253 19.1404 27.9941H18.7091Z" fill="#2D2D2D"/>
<path d="M14.3745 19.8242C14.8756 20.3469 15.5061 20.2906 16.1348 20.2478C16.2922 20.0351 16.621 20.0856 16.7514 19.8242C16.798 19.5784 16.7812 19.2889 16.9041 19.0966C17.191 18.6477 16.988 18.2309 16.8566 17.8452C16.7365 17.4906 16.5083 17.1428 16.0994 17.0243C16.0603 17.0126 16.0333 16.9592 15.9765 16.8999C15.6281 16.9796 15.264 16.8484 14.87 17.0126C14.4574 17.1846 14.408 17.6247 14.1025 17.8442C14.0997 17.8695 14.0951 17.8928 14.0951 17.9152C14.0951 18.3737 14.0951 18.8333 14.0951 19.2918C14.1901 19.4677 14.449 19.5503 14.3745 19.8233V19.8242Z" fill="#DCDCDB"/>
<path d="M17.3111 23.9097C17.34 24.2361 17.4173 24.3167 17.7302 24.3469C17.7014 24.0204 17.624 23.9398 17.3111 23.9097Z" fill="#3B3A3A"/>
<path d="M16.7513 23.7629C16.891 23.8115 17.0307 23.8601 17.1704 23.9086V23.6881C17.0475 23.6249 16.9217 23.5608 16.7513 23.4734V23.7629V23.7629Z" fill="#3B3A3A"/>
</g>
<defs>
<filter id="filter0_f_4911_13833" x="0" y="0" width="31" height="62" filterUnits="userSpaceOnUse" color-interpolation-filters="sRGB">
<feFlood flood-opacity="0" result="BackgroundImageFix"/>
<feBlend mode="normal" in="SourceGraphic" in2="BackgroundImageFix" result="shape"/>
<feGaussianBlur stdDeviation="2.5" result="effect1_foregroundBlur_4911_13833"/>
</filter>
<clipPath id="clip0_4911_13833">
<rect width="21" height="48" fill="white" transform="matrix(-1 0 0 1 26 7)"/>
</clipPath>
</defs>
</svg>
